<mxfile host="app.diagrams.net" modified="2023-05-04T06:20:09.039Z" agent="Mozilla/5.0 (Windows NT 10.0; Win64; x64) AppleWebKit/537.36 (KHTML, like Gecko) Chrome/112.0.0.0 Safari/537.36 Edg/112.0.1722.64" etag="ZkRgdXzh_Z1vLtgHULO0" version="21.2.7" type="github">
  <diagram id="C5RBs43oDa-KdzZeNtuy" name="Page-1">
    <mxGraphModel dx="980" dy="565" grid="1" gridSize="10" guides="1" tooltips="1" connect="1" arrows="1" fold="1" page="1" pageScale="1" pageWidth="827" pageHeight="1169" math="0" shadow="0">
      <root>
        <mxCell id="WIyWlLk6GJQsqaUBKTNV-0" />
        <mxCell id="WIyWlLk6GJQsqaUBKTNV-1" parent="WIyWlLk6GJQsqaUBKTNV-0" />
        <mxCell id="7QaLDU8cvigFUDiIewAa-0" value="&lt;div style=&quot;display: flex; justify-content: flex-start; text-align: left; align-items: baseline; font-size: 0; line-height: 1.25;margin-top: -2px;&quot;&gt;&lt;span&gt;&lt;span style=&quot;font-size:16.7px;color:#000000;&quot;&gt;Data from:&#xa;&lt;/span&gt;&lt;/span&gt;&lt;/div&gt;&lt;ul style=&quot;margin: 0px; padding-left: 10px;list-style-position: inside; list-style-type:disc&quot;&gt;&lt;li style=&quot;text-align:left;color:#000000;font-size:16.7px;&quot;&gt;&lt;span style=&quot;margin-left: 0px;margin-top: -2px;&quot;&gt;&lt;span style=&quot;font-size:16.7px;color:#000000;&quot;&gt;detectors and sensors;&lt;/span&gt;&lt;/span&gt;&lt;/li&gt;&lt;li style=&quot;text-align:left;color:#000000;font-size:16px;&quot;&gt;&lt;span style=&quot;margin-left: 0px;margin-top: -2px;&quot;&gt;&lt;span style=&quot;font-size:13px;color:#000000;&quot;&gt;&lt;span style=&quot;font-size:16px;color:#000000;&quot;&gt;connected vehicles;&lt;/span&gt;&lt;/span&gt;&lt;/span&gt;&lt;/li&gt;&lt;li style=&quot;text-align:left;color:#000000;font-size:16px;&quot;&gt;&lt;span style=&quot;margin-left: 0px;margin-top: -2px;&quot;&gt;&lt;span style=&quot;font-size:16px;color:#000000;&quot;&gt;operational data feeds from centers&lt;/span&gt;&lt;/span&gt;&lt;/li&gt;&lt;/ul&gt;" style="html=1;overflow=block;blockSpacing=1;whiteSpace=wrap;fontSize=13;align=left;spacing=3.8;verticalAlign=top;strokeColor=none;fillOpacity=100;fillColor=none;strokeWidth=0;lucidId=_QgUcoLPHOwQ;" vertex="1" parent="WIyWlLk6GJQsqaUBKTNV-1">
          <mxGeometry x="50" y="190" width="223" height="105" as="geometry" />
        </mxCell>
        <mxCell id="7QaLDU8cvigFUDiIewAa-1" value="Performance&#xa;Monitoring" style="html=1;overflow=block;blockSpacing=1;whiteSpace=wrap;fontSize=16;fontColor=default;align=left;spacing=3.8;verticalAlign=top;strokeColor=none;fillOpacity=100;fillColor=none;strokeWidth=0;lucidId=rTgUIsVSYfn.;" vertex="1" parent="WIyWlLk6GJQsqaUBKTNV-1">
          <mxGeometry x="470" y="295" width="99" height="46" as="geometry" />
        </mxCell>
        <mxCell id="7QaLDU8cvigFUDiIewAa-2" value="historical data including transportation planning, condition monitoring, safety analyses, and research" style="html=1;overflow=block;blockSpacing=1;whiteSpace=wrap;fontSize=16;fontColor=default;align=left;spacing=3.8;verticalAlign=top;strokeColor=none;fillOpacity=100;fillColor=none;strokeWidth=0;lucidId=RTgU5cvCFU41;" vertex="1" parent="WIyWlLk6GJQsqaUBKTNV-1">
          <mxGeometry x="500" y="434" width="375" height="46" as="geometry" />
        </mxCell>
        <mxCell id="7QaLDU8cvigFUDiIewAa-3" value="&lt;div style=&quot;display: flex; justify-content: flex-start; text-align: left; align-items: baseline; font-size: 0; line-height: 1.25;margin-top: -2px;&quot;&gt;&lt;span&gt;&lt;span style=&quot;font-size:16.7px;color:#000000;&quot;&gt;Additional data from: &#xa;&lt;/span&gt;&lt;/span&gt;&lt;/div&gt;&lt;ul style=&quot;margin: 0px; padding-left: 10px;list-style-position: inside; list-style-type:disc&quot;&gt;&lt;li style=&quot;text-align:left;color:#000000;font-size:16.7px;&quot;&gt;&lt;span style=&quot;margin-left: 0px;margin-top: -2px;&quot;&gt;&lt;span style=&quot;font-size:16.7px;color:#000000;&quot;&gt;accident data;&lt;/span&gt;&lt;/span&gt;&lt;/li&gt;&lt;li style=&quot;text-align:left;color:#000000;font-size:16.7px;&quot;&gt;&lt;span style=&quot;margin-left: 0px;margin-top: -2px;&quot;&gt;&lt;span style=&quot;font-size:16.7px;color:#000000;&quot;&gt;road condition data;&lt;/span&gt;&lt;/span&gt;&lt;/li&gt;&lt;li style=&quot;text-align:left;color:#000000;font-size:16.7px;&quot;&gt;&lt;span style=&quot;margin-left: 0px;margin-top: -2px;&quot;&gt;&lt;span style=&quot;font-size:16.7px;color:#000000;&quot;&gt;road closures;&lt;/span&gt;&lt;/span&gt;&lt;/li&gt;&lt;li style=&quot;text-align:left;color:#000000;font-size:16.7px;&quot;&gt;&lt;span style=&quot;margin-left: 0px;margin-top: -2px;&quot;&gt;&lt;span style=&quot;font-size:16.7px;color:#000000;&quot;&gt;other operational decisions&lt;/span&gt;&lt;/span&gt;&lt;/li&gt;&lt;/ul&gt;" style="html=1;overflow=block;blockSpacing=1;whiteSpace=wrap;fontSize=13;align=left;spacing=3.8;verticalAlign=top;strokeColor=none;fillOpacity=100;fillColor=none;strokeWidth=0;lucidId=EUgUkxcItkF_;" vertex="1" parent="WIyWlLk6GJQsqaUBKTNV-1">
          <mxGeometry x="50" y="360" width="223" height="108" as="geometry" />
        </mxCell>
        <mxCell id="7QaLDU8cvigFUDiIewAa-4" value="" style="html=1;jettySize=18;whiteSpace=wrap;fontSize=13;strokeColor=#5E5E5E;strokeWidth=1.5;rounded=0;startArrow=none;endArrow=block;endFill=1;exitX=1;exitY=0.758;exitPerimeter=0;entryX=0.244;entryY=0;entryPerimeter=0;lucidId=sWgUim-EBDGg;" edge="1" parent="WIyWlLk6GJQsqaUBKTNV-1" source="7QaLDU8cvigFUDiIewAa-1" target="7QaLDU8cvigFUDiIewAa-2">
          <mxGeometry width="100" height="100" relative="1" as="geometry">
            <Array as="points" />
          </mxGeometry>
        </mxCell>
        <mxCell id="7QaLDU8cvigFUDiIewAa-5" value="" style="html=1;jettySize=18;whiteSpace=wrap;fontSize=13;strokeColor=#5E5E5E;strokeWidth=1.5;rounded=0;startArrow=none;endArrow=block;endFill=1;exitX=1;exitY=0.496;exitPerimeter=0;entryX=0;entryY=0.505;entryPerimeter=0;lucidId=xWgUzvADoMYj;" edge="1" parent="WIyWlLk6GJQsqaUBKTNV-1" source="7QaLDU8cvigFUDiIewAa-3" target="7QaLDU8cvigFUDiIewAa-10">
          <mxGeometry width="100" height="100" relative="1" as="geometry">
            <Array as="points" />
          </mxGeometry>
        </mxCell>
        <mxCell id="7QaLDU8cvigFUDiIewAa-6" value="" style="html=1;jettySize=18;whiteSpace=wrap;fontSize=13;strokeColor=#5E5E5E;strokeWidth=1.5;rounded=0;startArrow=none;endArrow=block;endFill=1;exitX=1;exitY=0.371;exitPerimeter=0;entryX=0;entryY=0.5;entryPerimeter=0;lucidId=yZgUfU.D24RM;" edge="1" parent="WIyWlLk6GJQsqaUBKTNV-1" source="7QaLDU8cvigFUDiIewAa-0" target="7QaLDU8cvigFUDiIewAa-8">
          <mxGeometry width="100" height="100" relative="1" as="geometry">
            <Array as="points" />
          </mxGeometry>
        </mxCell>
        <mxCell id="7QaLDU8cvigFUDiIewAa-7" value="probe data information obtained from vehicles in the network" style="html=1;overflow=block;blockSpacing=1;whiteSpace=wrap;fontSize=16;fontColor=default;align=left;spacing=3.8;verticalAlign=top;strokeColor=none;fillOpacity=100;fillColor=none;strokeWidth=0;lucidId=e2gUqYonG3LM;" vertex="1" parent="WIyWlLk6GJQsqaUBKTNV-1">
          <mxGeometry x="83" y="530" width="235" height="46" as="geometry" />
        </mxCell>
        <mxCell id="7QaLDU8cvigFUDiIewAa-8" value="&lt;div style=&quot;display: flex; justify-content: flex-start; text-align: left; align-items: baseline; font-size: 0; line-height: 1.25;margin-top: -2px;&quot;&gt;&lt;span&gt;&lt;span style=&quot;font-size:13.3px;color:#333333;&quot;&gt;information&#xa;&lt;/span&gt;&lt;/span&gt;&lt;/div&gt;&lt;div style=&quot;display: flex; justify-content: flex-start; text-align: left; align-items: baseline; font-size: 0; line-height: 1.25;margin-top: -2px;&quot;&gt;&lt;span&gt;&lt;span style=&quot;font-size:13.3px;color:#333333;&quot;&gt;to support&lt;/span&gt;&lt;/span&gt;&lt;/div&gt;" style="html=1;overflow=block;blockSpacing=1;whiteSpace=wrap;fontSize=13;align=left;spacing=3.8;verticalAlign=top;strokeColor=none;fillOpacity=0;fillColor=#ffffff;strokeWidth=0;lucidId=r2gUvU_KWVw2;" vertex="1" parent="WIyWlLk6GJQsqaUBKTNV-1">
          <mxGeometry x="310" y="210" width="73" height="40" as="geometry" />
        </mxCell>
        <mxCell id="7QaLDU8cvigFUDiIewAa-9" value="" style="html=1;jettySize=18;whiteSpace=wrap;fontSize=13;strokeColor=#5E5E5E;strokeWidth=1.5;rounded=0;startArrow=none;endArrow=block;endFill=1;exitX=1;exitY=0.639;exitPerimeter=0;entryX=0;entryY=0.338;entryPerimeter=0;lucidId=V2gUwx6A~95z;" edge="1" parent="WIyWlLk6GJQsqaUBKTNV-1" source="7QaLDU8cvigFUDiIewAa-8" target="7QaLDU8cvigFUDiIewAa-1">
          <mxGeometry width="100" height="100" relative="1" as="geometry">
            <Array as="points" />
          </mxGeometry>
        </mxCell>
        <mxCell id="7QaLDU8cvigFUDiIewAa-10" value="&lt;div style=&quot;display: flex; justify-content: flex-start; text-align: left; align-items: baseline; font-size: 0; line-height: 1.25;margin-top: -2px;&quot;&gt;&lt;span&gt;&lt;span style=&quot;font-size:13.3px;color:#333333;&quot;&gt;information&#xa;&lt;/span&gt;&lt;/span&gt;&lt;/div&gt;&lt;div style=&quot;display: flex; justify-content: flex-start; text-align: left; align-items: baseline; font-size: 0; line-height: 1.25;margin-top: -2px;&quot;&gt;&lt;span&gt;&lt;span style=&quot;font-size:13.3px;color:#333333;&quot;&gt;to provide context&lt;/span&gt;&lt;/span&gt;&lt;/div&gt;" style="html=1;overflow=block;blockSpacing=1;whiteSpace=wrap;fontSize=13;align=left;spacing=3.8;verticalAlign=top;strokeColor=none;fillOpacity=0;fillColor=#ffffff;strokeWidth=0;lucidId=12gUu.kQD7m7;" vertex="1" parent="WIyWlLk6GJQsqaUBKTNV-1">
          <mxGeometry x="301" y="394" width="113" height="40" as="geometry" />
        </mxCell>
        <mxCell id="7QaLDU8cvigFUDiIewAa-11" value="" style="html=1;jettySize=18;whiteSpace=wrap;fontSize=13;strokeColor=#5E5E5E;strokeWidth=1.5;rounded=0;startArrow=none;endArrow=block;endFill=1;exitX=0.796;exitY=0;exitPerimeter=0;entryX=0.108;entryY=1;entryPerimeter=0;lucidId=72gU6NpuvXQm;" edge="1" parent="WIyWlLk6GJQsqaUBKTNV-1" source="7QaLDU8cvigFUDiIewAa-10" target="7QaLDU8cvigFUDiIewAa-1">
          <mxGeometry width="100" height="100" relative="1" as="geometry">
            <Array as="points" />
          </mxGeometry>
        </mxCell>
        <mxCell id="7QaLDU8cvigFUDiIewAa-12" value="determine network performance measures such as speed and travel times" style="html=1;overflow=block;blockSpacing=1;whiteSpace=wrap;fontSize=16;fontColor=default;align=left;spacing=3.8;verticalAlign=top;strokeColor=none;fillOpacity=100;fillColor=none;strokeWidth=0;lucidId=03gUnxff-myh;" vertex="1" parent="WIyWlLk6GJQsqaUBKTNV-1">
          <mxGeometry x="369" y="530" width="306" height="46" as="geometry" />
        </mxCell>
        <mxCell id="7QaLDU8cvigFUDiIewAa-13" value="" style="html=1;jettySize=18;whiteSpace=wrap;fontSize=13;strokeColor=#5E5E5E;strokeWidth=1.5;rounded=0;startArrow=none;endArrow=block;endFill=1;exitX=1;exitY=0.5;exitPerimeter=0;entryX=0;entryY=0.5;entryPerimeter=0;lucidId=e4gU0tdIhWGQ;" edge="1" parent="WIyWlLk6GJQsqaUBKTNV-1" source="7QaLDU8cvigFUDiIewAa-7" target="7QaLDU8cvigFUDiIewAa-12">
          <mxGeometry width="100" height="100" relative="1" as="geometry">
            <Array as="points" />
          </mxGeometry>
        </mxCell>
        <mxCell id="7QaLDU8cvigFUDiIewAa-14" value="information collected from the vehicles" style="html=1;overflow=block;blockSpacing=1;whiteSpace=wrap;fontSize=16.7;fontColor=default;align=left;spacing=3.8;verticalAlign=top;strokeColor=none;fillOpacity=100;fillColor=none;strokeWidth=0;lucidId=G4gUEJNLzEh2;" vertex="1" parent="WIyWlLk6GJQsqaUBKTNV-1">
          <mxGeometry x="83" y="591" width="235" height="48" as="geometry" />
        </mxCell>
        <mxCell id="7QaLDU8cvigFUDiIewAa-15" value="processed by the infrastructure, e.g. environmental data and infrastructure conditions monitoring data" style="html=1;overflow=block;blockSpacing=1;whiteSpace=wrap;fontSize=16;fontColor=default;align=left;spacing=3.8;verticalAlign=top;strokeColor=none;fillOpacity=0;fillColor=none;strokeWidth=0;lucidId=34gU-igpAu1y;" vertex="1" parent="WIyWlLk6GJQsqaUBKTNV-1">
          <mxGeometry x="369" y="591" width="375" height="46" as="geometry" />
        </mxCell>
        <mxCell id="7QaLDU8cvigFUDiIewAa-16" value="" style="html=1;jettySize=18;whiteSpace=wrap;fontSize=13;strokeColor=#5E5E5E;strokeWidth=1.5;rounded=0;startArrow=none;endArrow=block;endFill=1;exitX=1;exitY=0.495;exitPerimeter=0;entryX=0;entryY=0.509;entryPerimeter=0;lucidId=_4gUNslse3HC;" edge="1" parent="WIyWlLk6GJQsqaUBKTNV-1" source="7QaLDU8cvigFUDiIewAa-14" target="7QaLDU8cvigFUDiIewAa-15">
          <mxGeometry width="100" height="100" relative="1" as="geometry">
            <Array as="points" />
          </mxGeometry>
        </mxCell>
      </root>
    </mxGraphModel>
  </diagram>
</mxfile>
